<?xml version="1.0" encoding="UTF-8"?>
<svg width="30px" height="27px" viewBox="0 0 30 27" version="1.1" xmlns="http://www.w3.org/2000/svg" xmlns:xlink="http://www.w3.org/1999/xlink">
    <title>shopping-cart copy 2</title>
    <defs>
        <filter color-interpolation-filters="auto" id="filter-1">
            <feColorMatrix in="SourceGraphic" type="matrix" values="0 0 0 0 0.156863 0 0 0 0 0.156863 0 0 0 0 0.156863 0 0 0 1.000000 0"></feColorMatrix>
        </filter>
    </defs>
    <g id="WEB" stroke="none" stroke-width="1" fill="none" fill-rule="evenodd">
        <g id="shopping-cart-copy-2" transform="translate(-1181.000000, -993.000000)" filter="url(#filter-1)">
            <g transform="translate(1181.000000, 993.594940)">
                <path d="M0.878905748,1.73333333 L6.26952767,1.73333333 C6.75407023,1.73333333 7.14843342,2.12220488 7.14843342,2.6 C7.14843342,2.67470488 7.03719688,1.66043401 8.82338977,17.5132118 C7.84400493,17.8930556 7.14843342,18.8342014 7.14843342,19.9333333 C7.14843342,21.3669444 8.33129407,22.5326562 9.78515066,22.5326562 L10.8151183,22.5326562 C10.7176147,22.803941 10.6640564,23.0962153 10.6640564,23.4 C10.6640564,24.8336111 11.8469171,26 13.3007737,26 C14.7546302,26 15.9374909,24.8336111 15.9374909,23.4 C15.9374909,23.0962153 15.8839326,22.803941 15.786429,22.5326562 L21.3622162,22.5326562 C21.2644837,22.803941 21.2109254,23.0962153 21.2109254,23.4 C21.2109254,24.8336111 22.393786,26 23.8476426,26 C25.3014992,26 26.4843599,24.8336111 26.4843599,23.4 C26.4843599,21.9663889 25.3014992,20.8 23.8476426,20.8 L9.78515066,20.8 C9.30060811,20.8 8.90624491,20.4111285 8.90624491,19.9333333 C8.90624491,19.4555382 9.30060811,19.0666667 9.78515066,19.0666667 L25.8741613,19.0666667 C27.1684873,19.0666667 28.262313,18.1530556 28.4749441,16.894132 L29.988081,7.94241321 C30.0304241,7.69121531 29.9587842,7.43414932 29.7917005,7.23982642 C29.6246169,7.04550346 29.3794846,6.93333333 29.1210771,6.93333333 L26.4843599,6.93333333 L12.4218679,6.93333333 L9.39994274,6.93333333 L8.90578718,2.54718753 C8.87694806,1.13795136 7.70553146,0 6.26952767,0 L0.878905748,0 C0.393447666,0 0,0.387968764 0,0.866666667 C0,1.34536457 0.393447666,1.73333333 0.878905748,1.73333333 Z M14.1796794,23.4 C14.1796794,23.8777951 13.7853162,24.2666667 13.3007737,24.2666667 C12.8162311,24.2666667 12.4218679,23.8777951 12.4218679,23.4 C12.4218679,22.9222049 12.8162311,22.5326562 13.3007737,22.5326562 C13.7853162,22.5326562 14.1796794,22.9222049 14.1796794,23.4 Z M23.8476426,24.2666667 C23.3631001,24.2666667 22.9687369,23.8777951 22.9687369,23.4 C22.9687369,22.920625 23.3631001,22.5333333 23.8476426,22.5333333 C24.3321852,22.5333333 24.7265484,22.9222049 24.7265484,23.4 C24.7265484,23.8777951 24.3321852,24.2666667 23.8476426,24.2666667 Z M28.0835564,8.66666667 L26.7411651,16.6090799 C26.6702118,17.0288715 26.3056033,17.3333333 25.8741613,17.3333333 L10.5718171,17.3333333 L9.59517882,8.66666667 L28.0835564,8.66666667 Z" id="Shape" fill="#000000" fill-rule="nonzero"></path>
                <path d="M13,15 C13.5523437,15 14,14.6269531 14,14.1666667 L14,10.8333333 C14,10.3730469 13.5523437,10 13,10 C12.4476563,10 12,10.3730469 12,10.8333333 L12,14.1666667 C12,14.6269531 12.4476563,15 13,15 Z" id="Path" fill="#000000" fill-rule="nonzero"></path>
                <path d="M18,15 C18.5523437,15 19,14.6269531 19,14.1666667 L19,10.8333333 C19,10.3730469 18.5523437,10 18,10 C17.4476563,10 17,10.3730469 17,10.8333333 L17,14.1666667 C17,14.6269531 17.4476563,15 18,15 Z" id="Path" fill="#000000" fill-rule="nonzero"></path>
                <path d="M24,15 C24.5523437,15 25,14.6269531 25,14.1666667 L25,10.8333333 C25,10.3730469 24.5523437,10 24,10 C23.4476563,10 23,10.3730469 23,10.8333333 L23,14.1666667 C23,14.6269531 23.4476563,15 24,15 Z" id="Path" fill="#000000" fill-rule="nonzero"></path>
            </g>
        </g>
    </g>
</svg>